<svg width="787" height="80" viewBox="0 0 787 80" fill="none" xmlns="http://www.w3.org/2000/svg">
<path d="M89.496 24.336C78.6107 23.9893 68.0373 23.7813 57.776 23.712V78H31.776V23.712C21.4453 23.7813 10.9067 23.9893 0.16 24.336V2.496H89.496V24.336ZM164.515 37.344C164.515 42.216 163.311 46.332 160.903 49.692C158.551 53.052 154.491 55.488 148.723 57C149.395 57.896 149.871 58.596 150.151 59.1L163.759 78H140.911C138.447 73.408 134.555 66.912 129.235 58.512H116.887V78H97.0631C97.5111 67.136 97.7351 56.972 97.7351 47.508C97.7351 38.044 97.5111 27.88 97.0631 17.016H116.887V17.1H134.107C145.419 17.1 153.315 18.92 157.795 22.56C162.275 26.2 164.515 31.128 164.515 37.344ZM116.887 33.228V42.804H128.227C132.987 42.804 136.571 42.664 138.979 42.384C141.443 42.048 143.151 41.544 144.103 40.872C145.055 40.2 145.531 39.22 145.531 37.932C145.531 36.7 145.083 35.748 144.187 35.076C143.291 34.404 141.611 33.928 139.147 33.648C136.683 33.368 133.043 33.228 128.227 33.228H116.887ZM219.219 78C218.155 74.808 216.727 70.804 214.935 65.988H188.139L183.939 78H162.855L186.375 17.016H217.287L240.975 78H219.219ZM210.147 52.884C208.019 47.004 205.835 41.124 203.595 35.244L201.579 29.784C199.619 34.88 196.735 42.58 192.927 52.884H210.147ZM270.697 16.092C281.225 16.092 289.541 17.38 295.645 19.956C301.749 22.476 306.005 26.004 308.413 30.54C310.877 35.02 312.109 40.536 312.109 47.088C312.109 53.304 310.709 58.736 307.909 63.384C305.109 68.032 300.909 71.644 295.309 74.22C289.709 76.74 282.821 78 274.645 78C269.661 78 264.593 78 259.441 78C254.289 78 249.081 77.972 243.817 77.916C244.265 66.884 244.489 56.608 244.489 47.088C244.489 37.456 244.265 27.404 243.817 16.932C250.481 16.372 259.441 16.092 270.697 16.092ZM276.997 61.284C282.205 61.284 285.677 60.024 287.413 57.504C289.149 54.984 290.017 51.512 290.017 47.088C290.017 42.832 289.093 39.388 287.245 36.756C285.453 34.124 282.037 32.808 276.997 32.808C271.565 32.808 267.505 32.976 264.817 33.312V61.284H276.997ZM338.618 62.628C359.898 62.516 375.326 62.208 384.902 61.704C384.51 64 384.258 66.38 384.146 68.844C384.09 71.252 384.062 74.304 384.062 78H318.794C319.242 67.136 319.466 56.972 319.466 47.508C319.466 38.044 319.242 27.88 318.794 17.016H384.062V32.22H338.618V40.284C341.306 40.34 345.282 40.368 350.546 40.368C359.45 40.368 368.662 40.2 378.182 39.864V54.312C368.662 53.976 359.45 53.808 350.546 53.808C345.282 53.808 341.306 53.836 338.618 53.892V62.628ZM435.285 34.944H479.693V78H461.389L459.205 59.592C457.125 66.1787 453.416 71.0667 448.077 74.256C442.739 77.4453 436.221 79.04 428.525 79.04C421.523 79.04 415.283 77.48 409.805 74.36C404.397 71.24 400.133 66.768 397.013 60.944C393.963 55.12 392.437 48.3253 392.437 40.56C392.437 28.1493 396.147 18.3387 403.565 11.128C410.984 3.91733 422.528 0.311996 438.197 0.311996C447.141 0.311996 455.011 1.768 461.805 4.68C468.669 7.592 474.493 12.0987 479.277 18.2C476.157 19.7947 470.056 22.984 460.973 27.768L458.373 29.224C455.669 26.52 452.515 24.5093 448.909 23.192C445.304 21.8053 441.491 21.112 437.469 21.112C430.813 21.112 425.856 22.88 422.597 26.416C419.339 29.8827 417.709 34.1813 417.709 39.312C417.709 44.8587 419.443 49.3307 422.909 52.728C426.445 56.1253 431.819 57.824 439.029 57.824C442.149 57.824 445.165 57.3733 448.077 56.472C451.059 55.5707 453.555 54.0107 455.565 51.792H435.285V34.944ZM536.936 16.932H557.768V50.364C557.656 58.596 554.828 65.4 549.284 70.776C543.796 76.152 534.528 78.84 521.48 78.84C508.264 78.84 499.22 76.292 494.348 71.196C489.476 66.044 487.096 59.296 487.208 50.952V16.932H508.04V49.608C508.04 52.072 508.208 54.088 508.544 55.656C508.936 57.168 510.112 58.596 512.072 59.94C514.088 61.284 517.308 61.956 521.732 61.956C526.548 61.956 530.076 61.284 532.316 59.94C534.556 58.54 535.872 57 536.264 55.32C536.712 53.64 536.936 51.484 536.936 48.852V16.932ZM617.485 78C616.421 74.808 614.993 70.804 613.201 65.988H586.405L582.205 78H561.121L584.641 17.016H615.553L639.241 78H617.485ZM608.413 52.884C606.285 47.004 604.101 41.124 601.861 35.244L599.845 29.784C597.885 34.88 595.001 42.58 591.193 52.884H608.413ZM711.175 37.344C711.175 42.216 709.971 46.332 707.563 49.692C705.211 53.052 701.151 55.488 695.383 57C696.055 57.896 696.531 58.596 696.811 59.1L710.419 78H687.571C685.107 73.408 681.215 66.912 675.895 58.512H663.547V78H643.723C644.171 67.136 644.395 56.972 644.395 47.508C644.395 38.044 644.171 27.88 643.723 17.016H663.547V17.1H680.767C692.079 17.1 699.975 18.92 704.455 22.56C708.935 26.2 711.175 31.128 711.175 37.344ZM663.547 33.228V42.804H674.887C679.647 42.804 683.231 42.664 685.639 42.384C688.103 42.048 689.811 41.544 690.763 40.872C691.715 40.2 692.191 39.22 692.191 37.932C692.191 36.7 691.743 35.748 690.847 35.076C689.951 34.404 688.271 33.928 685.807 33.648C683.343 33.368 679.703 33.228 674.887 33.228H663.547ZM744.76 16.092C755.288 16.092 763.604 17.38 769.708 19.956C775.812 22.476 780.068 26.004 782.476 30.54C784.94 35.02 786.172 40.536 786.172 47.088C786.172 53.304 784.772 58.736 781.972 63.384C779.172 68.032 774.972 71.644 769.372 74.22C763.772 76.74 756.884 78 748.708 78C743.724 78 738.656 78 733.504 78C728.352 78 723.144 77.972 717.88 77.916C718.328 66.884 718.552 56.608 718.552 47.088C718.552 37.456 718.328 27.404 717.88 16.932C724.544 16.372 733.504 16.092 744.76 16.092ZM751.06 61.284C756.268 61.284 759.74 60.024 761.476 57.504C763.212 54.984 764.08 51.512 764.08 47.088C764.08 42.832 763.156 39.388 761.308 36.756C759.516 34.124 756.1 32.808 751.06 32.808C745.628 32.808 741.568 32.976 738.88 33.312V61.284H751.06Z" fill="black"/>
</svg>
